<?xml version="1.0" encoding="utf-8"?>
<!-- Generator: Adobe Illustrator 23.0.6, SVG Export Plug-In . SVG Version: 6.00 Build 0)  -->
<svg version="1.1" id="Layer_1" xmlns:svgjs="http://svgjs.com/svgjs"
	 xmlns="http://www.w3.org/2000/svg" xmlns:xlink="http://www.w3.org/1999/xlink" x="0px" y="0px" viewBox="0 0 512 512"
	 style="enable-background:new 0 0 512 512;" xml:space="preserve">
<style type="text/css">
	.st0{opacity:0.9;fill:#00408A;}
</style>
<g>
	<path d="M351.9,174.9c-4-3.5-7.6-7.5-10.8-11.8L208,285.1L36.9,128.3c1-0.2,2.1-0.3,3.1-0.3h287.4c-0.3-2.6-0.4-5.3-0.4-8
		s0.2-5.4,0.4-8H40c-17.7,0-32,14.3-32,32v208c0,17.7,14.3,32,32,32h229c-1.8-5.2-3.3-10.5-4.4-16H40c-1.9,0-3.8-0.4-5.6-1.1
		l105.7-122.4l62.5,57.3c3.1,2.8,7.8,2.8,10.8,0l62.5-57.3l16.5,19.2c3.5-4,7.3-7.8,11.4-11.3l-16.1-18.6L351.9,174.9z M24.2,354.2
		c-0.1-0.7-0.2-1.5-0.2-2.2V144c0-1.7,0.3-3.4,0.9-5l103.4,94.8L24.2,354.2z M400,193c-2.7,0-5.4-0.2-8-0.4v30
		c5.4,0.3,10.8,1,16,2.1v-32.1C405.4,192.8,402.7,193,400,193z"/>
	<path class="st0" d="M400,47c-40.3,0-73,32.7-73,73s32.7,73,73,73s73-32.7,73-73S440.3,47,400,47z M400,176c-30.9,0-56-25.1-56-56
		s25.1-56,56-56s56,25.1,56,56S430.9,176,400,176z"/>
	<path class="st0" d="M384,222.3c-67.2,0-121.7,54.5-121.7,121.7S316.8,465.7,384,465.7S505.7,411.2,505.7,344
		S451.2,222.3,384,222.3z M384,449.1c-58,0-105.1-47.1-105.1-105.1S326,238.9,384,238.9S489.1,286,489.1,344S442,449.1,384,449.1z"
		/>
	<path class="st0" d="M445.1,280.5l-144,56c-4.1,1.6-6.2,6.2-4.6,10.4c0.4,1,1,2,1.8,2.8l22.4,22.4l7.5,29.8
		c1.1,4.3,5.4,6.9,9.7,5.8c2.3-0.6,4.2-2.1,5.2-4.2l3-6.1l24.2,24.2c1.5,1.5,3.6,2.4,5.7,2.4c0.4,0,0.7,0,1.1-0.1
		c2.5-0.3,4.7-1.8,5.9-4l72-128c2.2-3.9,0.8-8.7-3.1-10.9C449.8,279.9,447.3,279.7,445.1,280.5L445.1,280.5z M338.7,378l-1.4-5.7
		l14.2-7.1L338.7,378z M374.2,402.9L355.3,384l42.3-42.3c3.1-3.1,3.1-8.2-0.1-11.3c-2.4-2.4-6.1-3-9.2-1.5l-58.8,29.4L318.4,347
		l111.7-43.5L374.2,402.9z"/>
	<path class="st0" d="M392,107.3V160h16V88c0-4.4-3.6-8-8-8c-2.1,0-4.2,0.8-5.7,2.3l-16,16l11.3,11.3L392,107.3z"/>
</g>
</svg>
