<svg xmlns="http://www.w3.org/2000/svg" version="1.1" xmlns:xlink="http://www.w3.org/1999/xlink" xmlns:svgjs="http://svgjs.com/svgjs" width="512" height="512" x="0" y="0" viewBox="0 0 511.999 511.999" style="enable-background:new 0 0 512 512" xml:space="preserve" class=""><g>
<g xmlns="http://www.w3.org/2000/svg">
	<g>
		<path d="M504.251,399.55L305.495,55.296C295.164,37.402,276.66,26.72,255.999,26.72s-39.165,10.683-49.496,28.576L7.748,399.55    c-10.331,17.894-10.331,39.259,0,57.153c10.331,17.893,28.834,28.576,49.496,28.576h397.511c20.661,0,39.165-10.683,49.496-28.576    C514.581,438.809,514.581,417.444,504.251,399.55z M478.251,441.691c-4.905,8.494-13.688,13.565-23.496,13.565H57.244    c-9.808,0-18.592-5.071-23.496-13.565c-4.904-8.494-4.904-18.637,0-27.131L232.503,70.306    c4.905-8.494,13.688-13.565,23.496-13.565c9.808,0,18.592,5.071,23.496,13.565L478.251,414.56    C483.155,423.054,483.155,433.197,478.251,441.691z" fill="#ffffff" data-original="#000000" style="" class=""></path>
	</g>
</g>
<g xmlns="http://www.w3.org/2000/svg">
	<g>
		<path d="M255.999,355.183c-11.036,0-20.015,8.979-20.015,20.015c0,11.036,8.979,20.015,20.015,20.015    c11.036,0,20.015-8.979,20.015-20.015C276.014,364.162,267.035,355.183,255.999,355.183z" fill="#ffffff" data-original="#000000" style="" class=""></path>
	</g>
</g>
<g xmlns="http://www.w3.org/2000/svg">
	<g>
		<rect x="240.987" y="170.044" width="30.022" height="155.115" fill="#ffffff" data-original="#000000" style="" class=""></rect>
	</g>
</g>
<g xmlns="http://www.w3.org/2000/svg">
</g>
<g xmlns="http://www.w3.org/2000/svg">
</g>
<g xmlns="http://www.w3.org/2000/svg">
</g>
<g xmlns="http://www.w3.org/2000/svg">
</g>
<g xmlns="http://www.w3.org/2000/svg">
</g>
<g xmlns="http://www.w3.org/2000/svg">
</g>
<g xmlns="http://www.w3.org/2000/svg">
</g>
<g xmlns="http://www.w3.org/2000/svg">
</g>
<g xmlns="http://www.w3.org/2000/svg">
</g>
<g xmlns="http://www.w3.org/2000/svg">
</g>
<g xmlns="http://www.w3.org/2000/svg">
</g>
<g xmlns="http://www.w3.org/2000/svg">
</g>
<g xmlns="http://www.w3.org/2000/svg">
</g>
<g xmlns="http://www.w3.org/2000/svg">
</g>
<g xmlns="http://www.w3.org/2000/svg">
</g>
</g></svg>