<?xml version="1.0" encoding="utf-8"?>
<!-- Generator: Adobe Illustrator 23.0.6, SVG Export Plug-In . SVG Version: 6.00 Build 0)  -->
<svg version="1.1" id="Layer_1" xmlns:svgjs="http://svgjs.com/svgjs"
	 xmlns="http://www.w3.org/2000/svg" xmlns:xlink="http://www.w3.org/1999/xlink" x="0px" y="0px" viewBox="0 0 512 512"
	 style="enable-background:new 0 0 512 512;" xml:space="preserve">
<style type="text/css">
	.st0{fill:#FFFFFF;stroke:#150400;stroke-miterlimit:10;}
</style>
<g id="Layer_1" xmlns:svgjs="http://svgjs.com/svgjs">
	
		<image style="overflow:visible;opacity:0.64;" width="530" height="530" xlink:href="7D11CD67.png"  transform="matrix(1 0 0 1 -9 -9)">
	</image>
	<g>
		<g>
			<g>
				<g>
					<g>
						<g>
							<path class="st0" d="M256,7C118.5,7,7,118.5,7,256s111.5,249,249,249s249-111.5,249-249S393.5,7,256,7z M256,473.9
								c-120.3,0-217.9-97.5-217.9-217.9S135.7,38.1,256,38.1S473.9,135.7,473.9,256S376.3,473.9,256,473.9z"/>
							<path class="st0" d="M291.6,120.6L167.1,245.1c-6,6.1-6,15.9,0,21.9l124.5,124.5l21.9-22.1L200.1,256l113.5-113.5
								L291.6,120.6z"/>
						</g>
					</g>
				</g>
			</g>
		</g>
	</g>
</g>
</svg>
