<?xml version="1.0" encoding="iso-8859-1"?>
<!-- Generator: Adobe Illustrator 19.0.0, SVG Export Plug-In . SVG Version: 6.00 Build 0)  -->
<svg version="1.1" id="Capa_1" xmlns="http://www.w3.org/2000/svg" xmlns:xlink="http://www.w3.org/1999/xlink" x="0px" y="0px"
	 viewBox="0 0 512.001 512.001" style="enable-background:new 0 0 512.001 512.001;" xml:space="preserve">
<g>
	<g>
		<path d="M116.974,273.551c-3.86-3.949-10.192-4.021-14.139-0.16c-0.243,0.236-0.484,0.475-0.724,0.715
			c-3.909,3.901-3.916,10.232-0.016,14.141c1.954,1.958,4.515,2.937,7.078,2.937c2.555,0,5.11-0.974,7.062-2.922l0.578-0.572
			C120.763,283.83,120.835,277.5,116.974,273.551z"/>
	</g>
</g>
<g>
	<g>
		<path d="M237.848,274.116c-24.986-24.985-61.555-34.213-95.44-24.086c-5.291,1.582-8.298,7.152-6.716,12.443
			c1.582,5.29,7.152,8.296,12.443,6.716c26.828-8.023,55.789-0.716,75.572,19.067c29.628,29.627,29.628,77.835,0,107.464
			c-14.816,14.817-34.271,22.224-53.732,22.222c-19.457-0.002-38.92-7.41-53.732-22.222c-20.117-20.117-27.297-49.486-18.738-76.644
			c1.66-5.267-1.264-10.882-6.531-12.542c-5.266-1.656-10.881,1.264-12.541,6.531c-10.808,34.297-1.739,71.387,23.67,96.796
			c18.712,18.712,43.292,28.068,67.872,28.068c24.58,0,49.16-9.357,67.873-28.067C275.272,372.435,275.272,311.542,237.848,274.116z
			"/>
	</g>
</g>
<g>
	<g>
		<path d="M169.975,303.993c-20.95,0-37.994,17.044-37.994,37.994c0,20.95,17.044,37.994,37.994,37.994s37.994-17.044,37.994-37.994
			C207.969,321.037,190.925,303.993,169.975,303.993z M169.975,359.984c-9.924,0-17.997-8.074-17.997-17.997
			c0-9.923,8.074-17.997,17.997-17.997c9.924,0,17.997,8.074,17.997,17.997C187.973,351.91,179.899,359.984,169.975,359.984z"/>
	</g>
</g>
<g>
	<g>
		<path d="M336.651,376.276l-7.506-6.776c-7.77-7.016-12.227-17.043-12.227-27.513c0-10.469,4.456-20.497,12.227-27.513l7.506-6.776
			c3.141-2.837,4.157-7.344,2.536-11.252l-17.385-41.915c-1.621-3.906-5.531-6.368-9.746-6.155l-10.107,0.517
			c-10.453,0.526-20.683-3.404-28.079-10.8c-7.397-7.396-11.333-17.631-10.8-28.078l0.517-10.107
			c0.216-4.224-2.249-8.126-6.155-9.747l-41.915-17.385c-3.908-1.619-8.415-0.608-11.251,2.536l-6.776,7.506
			c-7.016,7.77-17.043,12.227-27.513,12.227s-20.497-4.457-27.513-12.227l-6.776-7.506c-2.838-3.142-7.345-4.155-11.252-2.536
			L82.52,190.161c-3.906,1.621-6.371,5.522-6.155,9.746l0.516,10.109c0.533,10.446-3.404,20.681-10.8,28.078
			c-7.397,7.398-17.633,11.336-28.079,10.8l-10.107-0.517c-4.216-0.213-8.126,2.249-9.746,6.155L0.764,296.446
			c-1.622,3.908-0.607,8.416,2.535,11.251l7.506,6.777c7.77,7.015,12.227,17.042,12.227,27.513c0,10.47-4.457,20.498-12.228,27.514
			l-7.505,6.776c-3.141,2.836-4.156,7.343-2.535,11.251l17.385,41.916c1.621,3.906,5.524,6.365,9.746,6.155l10.107-0.517
			c10.451-0.536,20.682,3.403,28.079,10.8c7.398,7.397,11.334,17.631,10.8,28.079l-0.516,10.107
			c-0.216,4.223,2.249,8.125,6.155,9.746l41.915,17.385c3.908,1.618,8.416,0.606,11.252-2.536l6.775-7.506
			c7.017-7.77,17.044-12.227,27.514-12.227c10.469,0,20.497,4.457,27.513,12.227l6.776,7.506c1.937,2.146,4.651,3.299,7.424,3.299
			c1.288,0,2.588-0.25,3.827-0.764l41.915-17.385c3.906-1.621,6.371-5.522,6.155-9.747l-0.517-10.106
			c-0.533-10.447,3.404-20.683,10.8-28.079c7.397-7.398,17.639-11.328,28.079-10.8l10.107,0.517
			c4.221,0.212,8.126-2.249,9.746-6.155l17.385-41.915C340.809,383.62,339.793,379.112,336.651,376.276z M306.032,415.268
			l-3.065-0.157c-16.09-0.82-31.847,5.24-43.239,16.631c-11.39,11.39-17.452,27.15-16.63,43.24l0.156,3.064l-28.879,11.977
			l-2.045-2.266c-10.8-11.963-26.238-18.824-42.356-18.824c-16.117,0-31.555,6.862-42.356,18.823l-2.045,2.266l-28.879-11.977
			l0.156-3.064c0.822-16.089-5.239-31.848-16.63-43.24c-11.391-11.391-27.156-17.445-43.24-16.632l-3.065,0.157l-11.978-28.88
			l2.265-2.045c11.964-10.799,18.825-26.238,18.825-42.356s-6.862-31.555-18.824-42.355l-2.266-2.046l11.978-28.88l3.065,0.157
			c16.079,0.804,31.847-5.241,43.238-16.631c11.391-11.39,17.452-27.151,16.63-43.238l-0.156-3.065l28.878-11.976l2.045,2.266
			c10.8,11.963,26.238,18.824,42.356,18.824c16.117,0,31.555-6.861,42.356-18.824l2.046-2.266l28.879,11.977l-0.156,3.065
			c-0.822,16.089,5.24,31.847,16.63,43.239c11.391,11.391,27.153,17.433,43.24,16.631l3.065-0.157l11.978,28.88l-2.266,2.045
			c-11.963,10.799-18.824,26.238-18.824,42.356c0,16.118,6.861,31.555,18.824,42.356l2.266,2.045L306.032,415.268z"/>
	</g>
</g>
<g>
	<g>
		<path d="M369.085,49.985c-22.053,0-39.994,17.941-39.994,39.994c0,5.521,4.476,9.999,9.998,9.999s9.998-4.477,9.998-9.999
			c0-11.026,8.971-19.997,19.997-19.997s19.997,8.971,19.997,19.997c0,11.026-8.971,19.997-19.997,19.997
			c-5.522,0-9.998,4.477-9.998,9.998v19.95c0,5.521,4.476,9.998,9.998,9.998s9.998-4.477,9.998-9.998v-11.217
			c17.23-4.45,29.996-20.127,29.996-38.728C409.079,67.926,391.138,49.985,369.085,49.985z"/>
	</g>
</g>
<g>
	<g>
		<path d="M376.151,170.354c-1.86-1.87-4.429-2.93-7.069-2.93c-2.63,0-5.209,1.06-7.069,2.93c-1.86,1.86-2.93,4.428-2.93,7.069
			c0,2.63,1.07,5.198,2.93,7.068c1.87,1.861,4.439,2.931,7.069,2.931c2.64,0,5.209-1.071,7.069-2.931
			c1.87-1.87,2.93-4.438,2.93-7.068C379.081,174.783,378.021,172.214,376.151,170.354z"/>
	</g>
</g>
<g>
	<g>
		<path d="M462.008,0.038H276.163c-27.566,0-49.992,22.427-49.992,49.992v87.079c0,5.521,4.476,9.998,9.998,9.998
			s9.999-4.477,9.999-9.998V50.031c0-16.539,13.456-29.995,29.995-29.995h185.845c16.539,0,29.995,13.456,29.995,29.995v131.314
			c0,16.539-13.456,29.995-29.995,29.995H406.33c-2.641,0-5.174,1.045-7.048,2.906l-27.574,27.4v-20.308
			c0-5.521-4.476-9.998-9.999-9.998h-59.344c-5.522,0-9.998,4.477-9.998,9.998s4.476,9.998,9.998,9.998h49.347v34.34
			c0,4.038,2.43,7.68,6.158,9.231c1.241,0.517,2.545,0.768,3.838,0.768c2.591,0,5.138-1.008,7.049-2.907l41.696-41.432h51.555
			c27.566,0,49.992-22.427,49.992-49.992V50.031C512.001,22.465,489.574,0.038,462.008,0.038z"/>
	</g>
</g>
<g>
</g>
<g>
</g>
<g>
</g>
<g>
</g>
<g>
</g>
<g>
</g>
<g>
</g>
<g>
</g>
<g>
</g>
<g>
</g>
<g>
</g>
<g>
</g>
<g>
</g>
<g>
</g>
<g>
</g>
</svg>
