<?xml version="1.0" encoding="utf-8"?>
<!-- Generator: Adobe Illustrator 23.0.6, SVG Export Plug-In . SVG Version: 6.00 Build 0)  -->
<svg version="1.1" id="Capa_1" xmlns="http://www.w3.org/2000/svg" xmlns:xlink="http://www.w3.org/1999/xlink" x="0px" y="0px"
	 viewBox="0 0 450.4 450.4" style="enable-background:new 0 0 450.4 450.4;" xml:space="preserve">
<style type="text/css">
	.st0{fill:#FFFFFF;}
</style>
<g>
	<path class="st0" d="M119.9,333.5c-19.1,0-34.5,15.5-34.5,34.5c0,19.1,15.5,34.5,34.5,34.5c19.1,0,34.5-15.5,34.5-34.5
		C154.4,348.9,139,333.5,119.9,333.5z M119.9,387.2c-10.6,0-19.2-8.6-19.2-19.2s8.6-19.2,19.2-19.2s19.2,8.6,19.2,19.2
		C139.1,378.6,130.5,387.2,119.9,387.2z"/>
	<path class="st0" d="M265.6,333.5c-19.1,0-34.5,15.5-34.5,34.5c0,19.1,15.5,34.5,34.5,34.5c19.1,0,34.5-15.5,34.5-34.5
		C300.2,348.9,284.7,333.5,265.6,333.5z M265.6,387.2c-10.6,0-19.2-8.6-19.2-19.2s8.6-19.2,19.2-19.2c10.6,0,19.2,8.6,19.2,19.2
		C284.8,378.6,276.2,387.2,265.6,387.2z"/>
	<path class="st0" d="M318,204.8v-20.1l-6.7,27.5c-2.5,11.2-12,19.4-23.4,20.3l-6.6,0.7l-153,15.8L92.7,140.9l129.7,1.9l29.1,0.4
		c-1.2-2-1.9-4.3-1.9-6.8c0-3.3,1.2-6.3,3.2-8.6l-30.2-0.4l-134.9-1.9l-6.9-21.1c-4.9-14.1-18.1-23.6-33-23.8H22.1
		c-4.2,0-7.7,3.4-7.7,7.7c0,4.2,3.4,7.7,7.7,7.7h25.7c8.3,0.2,15.7,5.5,18.4,13.4l48.7,146.9l-3.8,8.8c-4.3,11-3,23.5,3.5,33.4
		c6.4,9.7,17.1,15.8,28.8,16.1h149.2c4.2,0,7.7-3.4,7.7-7.7c0-4.2-3.4-7.7-7.7-7.7H143.3c-6.6-0.2-12.6-3.6-16.1-9.2
		c-3.4-5.5-4.2-12.3-1.9-18.4l3.1-6.9l161.5-16.9c6-0.7,11.6-2.6,16.6-5.5c9.5-5.5,16.6-14.6,19.6-25.6
		C321.3,214.9,318,210.3,318,204.8z"/>
	<path class="st0" d="M331,27.7c-57.1,0-103.9,43.9-108.4,99.8c-0.3,3-0.4,6-0.4,9c0,2.1,0.1,4.3,0.2,6.4
		c2.3,39.5,25.6,73.3,58.9,90.5c7.8,4,16.3,7.1,25.1,9.2c7.9,1.8,16.2,2.8,24.6,2.8c60.1,0,108.8-48.7,108.8-108.8
		C439.8,76.4,391.1,27.7,331,27.7z M399.4,149.5h-55.3v55.3c0,7.2-5.8,13-13,13c-1.8,0-3.5-0.4-5.1-1c-4.7-2-8-6.6-8-12v-55.3h-55.3
		c-4.7,0-8.8-2.5-11.1-6.2c-1.2-2-1.9-4.3-1.9-6.8c0-3.3,1.2-6.3,3.2-8.6c2.4-2.7,5.9-4.5,9.8-4.5H318V68.1c0-7.2,5.8-13,13.1-13
		c3.6,0,6.9,1.5,9.2,3.8c2.3,2.4,3.8,5.6,3.8,9.2v55.3h55.3c7.2,0,13,5.8,13,13.1c0,3.6-1.5,6.9-3.8,9.2
		C406.3,148,403,149.5,399.4,149.5z"/>
</g>
</svg>
