<svg id="Capa_1" enable-background="new 0 0 512 512" height="512" viewBox="0 0 512 512" width="512" xmlns="http://www.w3.org/2000/svg"><g><path d="m255 70c-8.284 0-15 6.716-15 15v5l-107.999 45h-27.001c-24.813 0-45 20.187-45 45s20.187 45 45 45h15v70c0 8.284 6.716 15 15 15s15-6.716 15-15v-62.5l90 37.5v5c0 8.284 6.716 15 15 15s15-6.716 15-15v-190c0-8.284-6.716-15-15-15zm-135 125h-15c-8.271 0-15-6.729-15-15s6.729-15 15-15h15zm120 42.5-90-37.5v-40l90-37.5z"/><path d="m457 282h-13.787l-55.606-55.606c-9.45-9.45-25.607-2.757-25.607 10.606v45h-32v-227c0-30.376-24.624-55-55-55h-220c-30.376 0-55 24.624-55 55v250c0 30.376 24.624 55 55 55h23.101l55.511 64.762c9.062 10.573 26.388 4.164 26.388-9.762v-55h62v97c0 30.376 24.624 55 55 55h180c30.376 0 55-24.624 55-55v-120c0-30.376-24.624-55-55-55zm-312 48c-8.284 0-15 6.716-15 15v29.451l-33.611-39.213c-2.849-3.325-7.01-5.238-11.389-5.238h-30c-13.807 0-25-11.193-25-25v-250c0-13.807 11.193-25 25-25h220c13.807 0 25 11.193 25 25v250c0 13.807-11.193 25-25 25zm337 127c0 13.807-11.193 25-25 25h-180c-13.807 0-25-11.193-25-25v-97h23c28.002 0 51.1-20.932 54.541-48h47.459c8.284 0 15-6.716 15-15v-23.787l34.394 34.394c2.813 2.813 6.628 4.393 10.606 4.393h20c13.807 0 25 11.193 25 25z"/><path d="m447 422h-5v-65c0-8.284-6.716-15-15-15s-15 6.716-15 15v65h-30v-45c0-8.284-6.716-15-15-15s-15 6.716-15 15v45h-30v-25c0-8.284-6.716-15-15-15s-15 6.716-15 15v25h-5c-8.284 0-15 6.716-15 15s6.716 15 15 15h160c8.284 0 15-6.716 15-15s-6.716-15-15-15z"/></g></svg>